<svg width="28" height="29" viewBox="0 0 28 29" fill="none" xmlns="http://www.w3.org/2000/svg">
<rect x="0.0905762" y="0.588287" width="27.7882" height="27.7882" fill="white"/>
<path d="M8.82254 13.6587C8.87055 13.6509 8.91915 13.6473 8.96777 13.6479H17.2466L17.066 13.564C16.8896 13.4805 16.7291 13.3668 16.5916 13.2281L14.2701 10.9065C13.9643 10.6147 13.9129 10.1451 14.1483 9.79403C14.4223 9.4199 14.9476 9.33867 15.3218 9.61262C15.352 9.63477 15.3808 9.65891 15.4078 9.68488L19.6059 13.883C19.934 14.2108 19.9343 14.7424 19.6066 15.0705C19.6064 15.0707 19.6061 15.0709 19.6059 15.0711L15.4078 19.2693C15.0794 19.5967 14.5478 19.596 14.2203 19.2676C14.1946 19.2418 14.1705 19.2143 14.1483 19.1853C13.9129 18.8342 13.9643 18.3647 14.2701 18.0728L16.5874 15.747C16.7106 15.6237 16.8523 15.5203 17.0073 15.4406L17.2592 15.3272H9.01397C8.58505 15.3431 8.20874 15.0435 8.12816 14.6219C8.05394 14.1642 8.36481 13.733 8.82254 13.6587Z" fill="#2F3030"/>
</svg>
