<svg width="29" height="33" viewBox="0 0 29 33" fill="none" xmlns="http://www.w3.org/2000/svg">
<path d="M14.7873 0L6.19141 5.05463L9.35168 6.92195L14.7873 3.73463L20.2229 6.92195L23.3832 5.05463L14.7873 0Z" fill="#F0B90B"/>
<path d="M20.2229 9.56192L23.3832 11.4293V15.1639L17.9476 18.3512V24.7258L14.7873 26.5931L11.627 24.7258V18.3512L6.19141 15.1639V11.4293L9.35168 9.56192L14.7873 12.7493L20.2229 9.56192Z" fill="#F0B90B"/>
<path d="M23.3834 17.8039V21.5385L20.2231 23.4058V19.6712L23.3834 17.8039Z" fill="#F0B90B"/>
<path d="M20.1914 26.0458L25.627 22.8585V16.4839L28.7873 14.6166V24.7258L20.1914 29.7805V26.0458Z" fill="#F0B90B"/>
<path d="M25.6275 10.1093L22.4673 8.24195L25.6275 6.37463L28.7878 8.24195V11.9766L25.6275 13.8439V10.1093Z" fill="#F0B90B"/>
<path d="M11.6274 31.1327V27.3981L14.7877 29.2654L17.948 27.3981V31.1327L14.7877 33L11.6274 31.1327Z" fill="#F0B90B"/>
<path d="M9.35168 23.4058L6.19141 21.5385V17.8039L9.35168 19.6712V23.4058Z" fill="#F0B90B"/>
<path d="M14.7877 10.1093L11.6274 8.24195L14.7877 6.37463L17.948 8.24195L14.7877 10.1093Z" fill="#F0B90B"/>
<path d="M7.10811 8.24195L3.94786 10.1093V13.8439L0.787598 11.9766V8.24195L3.94786 6.37463L7.10811 8.24195Z" fill="#F0B90B"/>
<path d="M0.787598 14.6166L3.94786 16.4839V22.8585L9.38349 26.0458V29.7805L0.787598 24.7258V14.6166Z" fill="#F0B90B"/>
</svg>
