<svg width="16" height="16" viewBox="0 0 16 16" fill="none" xmlns="http://www.w3.org/2000/svg">
<path d="M15.4383 15.7668V15.7662H15.442V10.3378C15.442 7.68225 14.8703 5.6366 11.7658 5.6366C10.2733 5.6366 9.27175 6.4556 8.86287 7.23205H8.8197V5.88452H5.8761V15.7662H8.94119V10.8732C8.94119 9.58483 9.18541 8.33906 10.7809 8.33906C12.3529 8.33906 12.3763 9.80931 12.3763 10.9558V15.7668H15.4383Z" fill="#093f55"/>
<path d="M0.88501 5.88513H3.9538V15.7668H0.88501V5.88513Z" fill="#093f55"/>
<path d="M2.41825 0.965576C1.43705 0.965576 0.640869 1.76176 0.640869 2.74296C0.640869 3.72416 1.43705 4.53699 2.41825 4.53699C3.39945 4.53699 4.19563 3.72416 4.19563 2.74296C4.19502 1.76176 3.39883 0.965576 2.41825 0.965576V0.965576Z" fill="#093f55"/>
</svg>
