<svg width="16" height="13" viewBox="0 0 16 13" fill="none" xmlns="http://www.w3.org/2000/svg">
<path d="M15.6555 1.77684C15.1095 2.01829 14.5278 2.17833 13.9212 2.25603C14.5452 1.88045 15.0214 1.29025 15.2453 0.578868C14.6636 0.928548 14.0212 1.17554 13.3367 1.31338C12.7843 0.720405 11.997 0.353149 11.1381 0.353149C9.47169 0.353149 8.13013 1.71671 8.13013 3.38833C8.13013 3.62885 8.15032 3.86012 8.19987 4.08029C5.69753 3.95725 3.48332 2.74818 1.99586 0.906346C1.73617 1.36056 1.58385 1.88045 1.58385 2.44012C1.58385 3.49101 2.12065 4.42256 2.92082 4.96189C2.43723 4.95263 1.96282 4.8111 1.56091 4.58815C1.56091 4.5974 1.56091 4.60943 1.56091 4.62146C1.56091 6.09603 2.60424 7.32083 3.97241 7.60298C3.7274 7.67051 3.46038 7.70289 3.18326 7.70289C2.99056 7.70289 2.79602 7.69179 2.61341 7.65109C3.0034 8.85276 4.11005 9.73621 5.42591 9.76489C4.40185 10.5725 3.10159 11.0591 1.69396 11.0591C1.44712 11.0591 1.21038 11.048 0.973633 11.0174C2.30693 11.8842 3.88707 12.3792 5.59108 12.3792C11.1298 12.3792 14.158 7.75377 14.158 3.74448C14.158 3.61035 14.1534 3.48084 14.1469 3.35225C14.7443 2.92487 15.2463 2.3911 15.6555 1.77684Z" fill="#093f55"/>
</svg>
